# xmcd
#
# Track frame offsets: 
#        150
#        11509
#        26482
#        39586
#        55031
#        65642
#        78023
#        91374
#        103764
#        114503
#        126958
#        138531
#        149192
#        165521
#        177084
#        187466
#        200193
#        213066
#        223195
#        233031
#        243831
#        254106
#        265238
#        283488
#        300398
#        317666
#
# Disc length: 4427 seconds
#
# Revision: 0
# Processed by: cddbd v1.5.2PL0 Copyright (c) Steve Scherf et al.
# Submitted via: ExactAudioCopy v0.99pb5
#
DISCID=8d11491a
DTITLE=Henson Cargill - On The Road: The Mega Years Plus
DYEAR=2009
DGENRE=Country
TTITLE0=Running From The Rain
TTITLE1=1932
TTITLE2=Daddy Frank
TTITLE3=Momma's Waiting
TTITLE4=Naked And Crying
TTITLE5=Pencil Marks On The Wall
TTITLE6=Afraid To Rock The Boat
TTITLE7=My '47 Chevy, My Honky Tonk Guitar And Me
TTITLE8=She Likes Warm Summer Days
TTITLE9=Daddy, Don't You Walk So Fast
TTITLE10=Oklahoma Hell
TTITLE11=This Just Ain't No Good Day For Leaving
TTITLE12=The Night They Drove Old Dixie Down
TTITLE13=Take Me Home Country Roads
TTITLE14=Can't Face The Bed Alone
TTITLE15=Red Skies Over Georgia
TTITLE16=Joe, Jesse And I
TTITLE17=Picking White Cotton
TTITLE18=Tall Timber Lumberjack
TTITLE19=Charlie From Boston
TTITLE20=Big Town
TTITLE21=How Long Is Never (How Deep Is Yes)
TTITLE22=Silence On The Line
TTITLE23=Forever In Blue Jeans
TTITLE24=Have A Good Day
TTITLE25=I Believe
EXTD=
EXTT0=
EXTT1=
EXTT2=
EXTT3=
EXTT4=
EXTT5=
EXTT6=
EXTT7=
EXTT8=
EXTT9=
EXTT10=
EXTT11=
EXTT12=
EXTT13=
EXTT14=
EXTT15=
EXTT16=
EXTT17=
EXTT18=
EXTT19=
EXTT20=
EXTT21=
EXTT22=
EXTT23=
EXTT24=
EXTT25=
PLAYORDER=
